<svg id="visual" viewBox="0 0 900 600" width="900" height="600" xmlns="http://www.w3.org/2000/svg" xmlns:xlink="http://www.w3.org/1999/xlink" version="1.1"><rect x="0" y="0" width="900" height="600" fill="#112b4b"></rect><path d="M0 378L12.5 383.5C25 389 50 400 75 401.3C100 402.7 125 394.3 150 388.5C175 382.7 200 379.3 225 367.2C250 355 275 334 300 348C325 362 350 411 375 427.3C400 443.7 425 427.3 450 394.8C475 362.3 500 313.7 525 295.8C550 278 575 291 600 306.2C625 321.3 650 338.7 675 346.2C700 353.7 725 351.3 750 358.2C775 365 800 381 825 377.2C850 373.3 875 349.7 887.5 337.8L900 326L900 601L887.5 601C875 601 850 601 825 601C800 601 775 601 750 601C725 601 700 601 675 601C650 601 625 601 600 601C575 601 550 601 525 601C500 601 475 601 450 601C425 601 400 601 375 601C350 601 325 601 300 601C275 601 250 601 225 601C200 601 175 601 150 601C125 601 100 601 75 601C50 601 25 601 12.5 601L0 601Z" fill="#27f39c" stroke-linecap="round" stroke-linejoin="miter"></path></svg>